<svg viewBox="0 0 2500 2500" width="16" height="16" xmlns:svg="http://www.w3.org/2000/svg"><path d="m 1705,2150 q -97,0 -168.5,-24.5 Q 1465,2101 1412,2064 q -53,-37 -93.5,-73.5 -40.5,-36.5 -75,-61 -34.5,-24.5 -69.5,-24.5 -35,0 -107,14.5 -72,14.5 -160,14.5 -184,0 -290,-95 -106,-95 -106,-268 0,-94 44.5,-169 44.5,-75 119,-119.5 Q 749,1238 838,1238 q 79,0 150.5,35.5 71.5,35.5 117.5,97.5 l -80,60 q -71,-93 -188,-93 -61,0 -110.5,30.5 -49.5,30.5 -78,83 Q 621,1504 621,1571 q 0,130 71.5,196.5 71.5,66.5 214.5,66.5 93,0 145,-25 52,-25 52,-69 0,-39 -35.5,-62.5 Q 1033,1654 983,1654 q -38,0 -67.5,24 -29.5,24 -37.5,62 l -78,-16 q 13,-65 64.5,-107.5 Q 916,1574 983,1574 q 50,0 92,19.5 42,19.5 70,52.5 35,-50 95,-81 60,-31 129,-31 52,0 104,25 l -36,72 q -33,-17 -68,-17 -44,0 -85,20 -41,20 -67,49 -26,29 -26,57 0,41 56.5,68.5 56.5,27.5 136.5,27.5 77,0 147.5,-21.5 70.5,-21.5 131.5,-49.5 61,-28 110,-49.5 49,-21.5 83,-21.5 37,0 73.5,17 36.5,17 79.5,34 43,17 98,17 47,0 89.5,-37 42.5,-37 69,-108.5 26.5,-71.5 26.5,-173.5 0,-94 -26.5,-173 -26.5,-79 -76.5,-133 v -46 Q 2189,983 2146,897.5 2103,812 2027.5,762 1952,712 1856,712 l -4,-80 q 11,0 22.5,0.5 11.5,0.5 24.5,2.5 -37,-55 -105,-96.5 -68,-41.5 -155.5,-65 Q 1551,450 1453,450 q -132,0 -248,43 -88,-18 -174,-18 -152,0 -283,49 -131,49 -205,134 -76,19 -140.5,67 -64.5,48 -103.5,112 -39,64 -39,131 0,64 37,109.5 37,45.5 94,45.5 40,0 63.5,-15 23.5,-15 23.5,-40 0,-37 -23.5,-65 -23.5,-28 -47,-58 -23.5,-30 -23.5,-69 0,-54 51,-103 l 70,72 q -21,20 -21,31 0,16 23.5,41 23.5,25 47,61.5 23.5,36.5 23.5,89.5 0,65 -54,110 -54,45 -133,45 -66,0 -120.5,-35 Q 216,1153 183,1095 150,1037 150,968 150,884 196.5,804 243,724 320.5,662 398,600 489,570 580,478 724,426.5 868,375 1031,375 q 82,0 166,15 125,-40 256,-40 132,0 249.5,37 117.5,37 203.5,102.5 86,65.5 121,152.5 125,57 199.5,179.5 Q 2301,944 2301,1093 v 10 q 49,66 75,154 26,88 26,186 0,107 -32,195 -32,88 -87,145 -55,57 -125,73 -61,139 -176.5,216.5 Q 1866,2150 1705,2150 Z M 509,1668 Q 398,1668 304.5,1614 211,1560 154.5,1468.5 98,1377 98,1267 q 0,-59 19,-116 19,-57 58,-112 l 92,58 q -60,83 -60,170 0,83 40.5,151.5 40.5,68.5 109,109 68.5,40.5 152.5,40.5 25,0 58,-5 l 18,98 q -36,7 -76,7 z M 371,1433 q -34,-71 -34,-143 0,-66 26,-141 l 76,28 q -22,59 -22,113 0,53 26,109 z m 776,273 -46,-71 100,-7 z m -35,-39 q -99,0 -177.5,-41.5 Q 856,1584 827,1515 l 74,-30 q 19,44 77.5,73 58.5,29 133.5,29 90,0 154,-41.5 64,-41.5 64,-96.5 0,-52 -57,-91 l 44,-66 q 93,61 93,157 0,61 -40,110.5 -40,49.5 -107.5,78.5 -67.5,29 -150.5,29 z m -346,-519 -64,-48 q 33,-45 33,-107 0,-62 -33,-106.5 Q 669,842 624,842 v -80 q 80,0 135.5,68 55.5,68 55.5,163 0,89 -49,155 z m 685,426 -97,-24 34,-73 92,22 z M 867,1017 q -89,0 -138,-75 l 66,-44 q 27,39 72,39 31,0 55,-20 l 50,62 q -46,38 -105,38 z m 119,310 -72,-36 q 56,-110 152,-169.5 96,-59.5 195,-59.5 61,0 117.5,23.5 56.5,23.5 100.5,72.5 l -60,54 q -31,-35 -72.5,-52 -41.5,-17 -86.5,-17 -77,0 -153,47.5 -76,47.5 -121,136.5 z m 504,451 q -82,-62 -82,-164 0,-74 64,-126 64,-52 152,-52 94,0 150,42 56,42 56,116 0,31 -11,64 l -76,-22 q 7,-23 7,-42 0,-78 -126,-78 -55,0 -95.5,29.5 -40.5,29.5 -40.5,68.5 0,61 48,99 z M 908,789 Q 897,739 848.5,706 800,673 735,673 q -60,0 -107,31 l -44,-68 q 70,-43 151,-43 92,0 163,50 71,50 88,128 z m 335,353 q -77,-15 -127.5,-83 -50.5,-68 -50.5,-159 0,-33 5,-60 l 78,16 q -3,16 -3,44 0,63 32.5,108.5 32.5,45.5 81.5,55.5 z m 271,386 q -87,0 -162,-51 l 46,-66 q 52,37 116,37 70,0 114.5,-43.5 44.5,-43.5 44.5,-112.5 0,-35 -8,-86 l 78,-14 q 10,51 10,100 0,103 -67.5,169.5 Q 1618,1528 1514,1528 Z M 812,686 q -29,-20 -48,-59 -19,-39 -19,-79 0,-44 24.5,-82.5 Q 794,427 834,407 l 36,72 q -45,22 -45,69 0,20 10,41.5 10,21.5 23,30.5 z m 229,263 -32,-74 q 57,-26 88,-85.5 31,-59.5 31,-117.5 0,-40 -16,-70.5 -16,-30.5 -51,-39.5 l 20,-78 q 65,16 96,70 31,54 31,121 0,79 -43,158.5 -43,79.5 -124,115.5 z m 1069,691 q 0,-51 -37.5,-87.5 -37.5,-36.5 -90.5,-36.5 -38,0 -86,21 -48,21 -77,51 l -58,-56 q 40,-41 103.5,-68.5 63.5,-27.5 117.5,-27.5 86,0 147,60 61,60 61,144 z m -757,-725 -58,-54 q 27,-30 27,-69 0,-23 -21,-40 -21,-17 -53,-17 -36,0 -65,11 l -30,-74 q 43,-17 95,-17 65,0 109.5,40 44.5,40 44.5,97 0,72 -49,123 z m 487,221 q -24,-88 -78.5,-135.5 Q 1707,953 1632,953 q -55,0 -105.5,23.5 -50.5,23.5 -85.5,62.5 -35,39 -45,86 l -78,-16 q 13,-66 59.5,-119.5 46.5,-53.5 113.5,-85 67,-31.5 141,-31.5 103,0 179,64 76,64 107,177 z m -285,-365 -72,-36 q 11,-22 16.5,-40.5 5.5,-18.5 5.5,-34.5 0,-44 -45,-68 -45,-24 -144,-39 l 12,-80 q 130,20 194.5,65.5 64.5,45.5 64.5,117.5 0,25 -8,54 -8,29 -24,61 z m 673,646 q -61,-2 -104,-45 -43,-43 -43,-104 0,-8 1.5,-17.5 1.5,-9.5 2.5,-17.5 l 78,20 q -2,8 -2,15 0,28 19.5,48.5 19.5,20.5 47.5,20.5 z m -222,-98 q -66,0 -138,-28 l 30,-74 q 56,22 108,22 64,0 114,-33.5 50,-33.5 81,-97.5 l 72,34 q -41,85 -110.5,131 -69.5,46 -156.5,46 z m -133,-284 q -43,0 -85,-15 l 28,-76 q 28,11 57,11 74,0 92,-103 l 78,14 q -13,79 -57.5,124 -44.5,45 -112.5,45 z M 1752,758 q -109,0 -185.5,-52 -76.5,-52 -76.5,-128 0,-41 25.5,-79.5 25.5,-38.5 68.5,-64 43,-25.5 95,-25.5 29,0 62,11 v 90 q -36,-16 -69,-16 -49,0 -75.5,29 -26.5,29 -26.5,55 0,39 53.5,69.5 Q 1677,678 1752,678 Z m -54,1302 q 15,0 30,-1 15,-1 40,-3 -106,-32 -180.5,-66.5 Q 1513,1955 1457,1899 q -13,-13 -30,-13 -16,0 -30,12.5 -14,12.5 -14,28.5 0,19 20,39 27,27 76.5,48 49.5,21 107.5,33.5 58,12.5 111,12.5 z m 166,-27 q 28,-11 52.5,-26.5 24.5,-15.5 46.5,-32.5 -85,-32 -143.5,-60.5 Q 1761,1885 1693,1847 q -16,-9 -29,-9 -14,0 -26,12.5 -12,12.5 -12,27.5 0,21 23,37 57,40 111,68.5 54,28.5 104,49.5 z m 151,-124 q 14,-16 25.5,-34 11.5,-18 21.5,-38 -68,-9 -104,-33.5 -36,-24.5 -65,-24.5 -16,0 -27.5,10 -11.5,10 -11.5,27 0,20 28,39 28,19 66,33 38,14 67,21 z" style="fill:#0570b0"/></svg>
